<svg xmlns="http://www.w3.org/2000/svg" width="360" height="345" viewBox="0 0 1172 1120">
  <g fill="none" fill-rule="evenodd">
    <path fill="#FFF" d="M586,40 C861.425854,40 1086.83847,254.132137 1104.84068,524.999249 L1130,525 C1131.10457,525 1132,525.895431 1132,527 L1132,823 C1132,824.104569 1131.10457,825 1130,825 L1033.49892,825.007848 C942.897486,977.670363 776.398927,1080 586,1080 C395.601073,1080 229.102514,977.670363 138.501081,825.007848 L42,825 C40.8954305,825 40,824.104569 40,823 L40,527 C40,525.895431 40.8954305,525 42,525 L67.1593212,524.999249 C85.1615318,254.132137 310.574146,40 586,40 Z"/>
    <path fill="#0D4286" d="M176.042,825.58 C263.296,959.581 414.422,1048.359 585.904,1048.359 C758.116,1048.36 909.216,959.768 996.245,825.58 L996.245,825.58 L1020.702,825.58 C999.812,859.694 974.93,891.276 946.251,919.954 C899.453,966.753 844.954,1003.495 784.269,1029.163 C721.435,1055.74 654.696,1069.21 585.904,1069.21 C517.112,1069.21 450.372,1055.74 387.539,1029.163 C326.853,1003.495 272.355,966.753 225.557,919.954 C196.879,891.276 171.996,859.694 151.106,825.58 L151.106,825.58 Z M585.904,50 C654.696,50 721.435,63.476 784.269,90.052 C844.954,115.719 899.453,152.462 946.251,199.26 C993.05,246.059 1029.792,300.557 1055.46,361.242 C1077.7,413.825 1090.75,469.145 1094.43,526.113 L1094.43,526.113 L1073.51,526.113 C1056.24,272.177 844.145,70.855 585.905,70.855 C326.781,70.854 115.441,271.418 98.287,526.113 L98.287,526.113 L77.383,526.113 C81.054,469.145 94.108,413.825 116.349,361.242 C142.016,300.557 178.759,246.059 225.557,199.26 C272.355,152.462 326.853,115.719 387.539,90.052 C450.372,63.476 517.112,50 585.904,50 Z"/>
    <path fill="#A49588" d="M194.491,825.58 C205.303,841.44 217.03,856.63 229.637,871.034 C245.732,889.423 267.518,901.898 291.493,906.631 L291.493,906.631 L317.039,911.672 L336.255,944.126 C347.596,963.279 364.451,978.545 384.582,988.043 C445.708,1016.883 513.956,1033.022 585.904,1033.022 C656.959,1033.022 724.405,1017.283 784.946,989.113 C805.271,979.656 822.273,964.289 833.694,944.999 L833.694,944.999 L853.428,911.672 L880.596,906.31 C904.604,901.571 926.421,889.071 942.518,870.639 C954.995,856.353 966.605,841.296 977.317,825.58 L977.317,825.58 L988.341,825.58 C970.553,852.447 950.048,877.541 926.943,900.647 C882.65,944.939 831.072,979.714 773.639,1004.006 C714.176,1029.157 651.013,1041.909 585.904,1041.909 C520.796,1041.909 457.632,1029.157 398.169,1004.006 C340.737,979.714 289.158,944.939 244.865,900.647 C221.76,877.541 201.256,852.447 183.467,825.58 L183.467,825.58 Z M585.904,77.306 C651.013,77.306 714.176,90.058 773.639,115.209 C831.072,139.501 882.65,174.276 926.943,218.568 C971.235,262.861 1006.011,314.44 1030.303,371.873 C1051.12,421.083 1063.43,472.829 1067.06,526.113 L1067.06,526.113 L1058.14,526.113 C1050.69,420.005 1008.112,323.434 941.994,247.979 C925.9,229.612 904.129,217.149 880.171,212.421 L880.171,212.421 L853.428,207.143 L834.022,174.37 C822.615,155.104 805.639,139.755 785.349,130.29 C724.705,102.002 657.117,86.193 585.904,86.193 C513.798,86.193 445.409,102.402 384.18,131.361 C364.083,140.866 347.253,156.114 335.927,175.243 L335.927,175.243 L317.039,207.143 L291.918,212.101 C267.994,216.823 246.252,229.26 230.161,247.583 C163.845,323.096 121.134,419.819 113.669,526.113 L113.669,526.113 L104.745,526.113 C108.375,472.829 120.691,421.083 141.506,371.873 C165.798,314.44 200.573,262.861 244.865,218.568 C289.158,174.276 340.737,139.501 398.169,115.209 C457.632,90.058 520.796,77.306 585.904,77.306 Z"/>
    <path fill="#0D4286" d="M873.295 811.14L879.388 811.14C883.245 811.14 885.405 809.482 885.405 806.088 885.405 802.772 883.245 801.151 879.388 801.151L873.295 801.151 873.295 811.14zM880.352 815.652C880.044 815.69 879.736 815.69 879.388 815.69L873.295 815.69 873.295 823.636 868.127 823.636 868.127 796.639 879.388 796.639C886.369 796.639 890.342 799.994 890.342 805.934 890.342 810.176 888.452 813.223 884.98 814.688L890.921 823.636 885.019 823.636 880.352 815.652zM847.346 813.492L842.64 802.153 837.858 813.492 847.346 813.492zM849.196 817.928L836.007 817.928 833.616 823.636 828.255 823.636 840.096 796.639 845.456 796.639 857.141 823.636 851.588 823.636 849.196 817.928 849.196 817.928zM813.527 815.537C813.527 813.338 811.56 811.988 808.282 812.026L801.725 812.026 801.725 819.161 808.282 819.161C811.56 819.2 813.527 817.851 813.527 815.537zM812.563 804.314C812.563 802.27 810.943 801.074 808.282 801.112L801.725 801.112 801.725 807.669 808.282 807.669C810.943 807.669 812.563 806.435 812.563 804.314zM817.846 803.389C817.846 806.357 816.073 808.633 813.141 809.365 816.729 810.022 818.888 812.606 818.888 816.192 818.888 820.82 815.07 823.636 808.899 823.636L796.558 823.636 796.558 796.639 808.553 796.639C814.3 796.639 817.846 799.223 817.846 803.389L817.846 803.389zM746.854 811.14L752.948 811.14C756.805 811.14 758.965 809.482 758.965 806.088 758.965 802.772 756.805 801.151 752.948 801.151L746.854 801.151 746.854 811.14zM758.579 823.636L753.912 815.652C753.603 815.69 753.296 815.69 752.948 815.69L746.854 815.69 746.854 823.636 741.686 823.636 741.686 796.639 752.948 796.639C759.93 796.639 763.901 799.994 763.901 805.934 763.901 810.176 762.012 813.223 758.54 814.688L764.48 823.636 758.579 823.636 758.579 823.636z"/>
    <polyline fill="#0D4286" points="728.27 796.639 728.27 801.151 713.654 801.151 713.654 807.823 726.767 807.823 726.767 812.335 713.654 812.335 713.654 819.123 728.734 819.123 728.734 823.636 708.486 823.636 708.486 796.639 728.27 796.639"/>
    <polyline fill="#0D4286" points="697.113 796.639 697.113 801.229 688.706 801.229 688.706 823.636 683.5 823.636 683.5 801.229 675.092 801.229 675.092 796.639 697.113 796.639"/>
    <path fill="#0D4286" d="M655.043,801.112 C652.613,801.112 651.032,801.999 651.032,803.658 C651.032,809.135 665.533,806.165 665.494079,815.845 C665.494079,820.898 661.097,823.828 655.159,823.828 C650.839,823.828 646.636,822.093 643.743,819.509 L645.902,815.151 C648.68,817.619 652.344,819.123 655.236,819.123 C658.128,819.123 659.864,818.044 659.864,816.153 C659.864,810.523 645.363,813.724 645.363,804.121 C645.363,799.416 649.413,796.407 655.467,796.407 C659.055,796.407 662.64,797.565 665.224,799.262 L663.141,803.735 C660.249,801.999 657.126,801.112 655.043,801.112"/>
    <polyline fill="#0D4286" points="625.313 814.804 625.313 823.636 620.145 823.636 620.145 814.997 610.08 796.639 615.324 796.639 622.69 809.327 629.941 796.639 635.147 796.639 625.313 814.804"/>
    <path fill="#0D4286" d="M577.805,810.138 C577.805,815.229 582.009,819.238 586.984,819.238 C591.921,819.238 596.009,815.229 596.009,810.138 C596.009,805.046 591.921,801.112 586.984,801.112 C581.971,801.112 577.805,805.046 577.805,810.138 Z M601.293,810.138 C601.293,817.89 595.044,823.866 586.907,823.866 C578.769,823.866 572.521,817.89 572.521,810.138 C572.521,802.347 578.769,796.484 586.907,796.484 C595.044,796.484 601.293,802.385 601.293,810.138 L601.293,810.138 Z"/>
    <polyline fill="#0D4286" points="543.026 812.837 536.315 812.837 536.315 819.47 533.037 819.47 533.037 812.837 526.365 812.837 526.365 809.365 533.037 809.365 533.037 802.694 536.315 802.694 536.315 809.365 543.026 809.365 543.026 812.837"/>
    <polyline fill="#0D4286" points="475.775 796.639 489.697 815.112 489.697 796.639 494.711 796.639 494.711 823.636 489.813 823.636 475.929 805.201 475.929 823.636 470.877 823.636 470.877 796.639 475.775 796.639"/>
    <polyline fill="#0D4286" points="457.461 796.639 457.461 801.151 442.844 801.151 442.844 807.823 455.957 807.823 455.957 812.335 442.844 812.335 442.844 819.123 457.924 819.123 457.924 823.636 437.677 823.636 437.677 796.639 457.461 796.639"/>
    <polyline fill="#0D4286" points="404.669 796.639 404.669 808.171 418.129 808.171 418.129 796.639 423.297 796.639 423.297 823.636 418.129 823.636 418.129 812.683 404.669 812.683 404.669 823.636 399.501 823.636 399.501 796.639 404.669 796.639"/>
    <path fill="#0D4286" d="M377.177,801.074 C372.085,801.074 368.113,805.008 368.113,810.022 C368.113,815.074 372.085,819.007 377.177,819.007 C379.761,819.007 382.498,817.813 384.504,815.845 L387.551,819.238 C384.774,822.054 380.802,823.866 376.906,823.866 C368.962,823.866 362.829,817.89 362.829,810.099 C362.829,802.385 369.039,796.484 377.099,796.484 C380.956,796.484 384.889,798.144 387.512,800.805 L384.504,804.583 C382.575,802.424 379.837,801.074 377.177,801.074"/>
    <polyline fill="#0D4286" points="355.12 796.639 355.12 801.229 346.713 801.229 346.713 823.636 341.506 823.636 341.506 801.229 333.099 801.229 333.099 796.639 355.12 796.639"/>
    <polygon fill="#0D4286" points="316.595 823.636 321.763 823.636 321.763 796.639 316.595 796.639"/>
    <polyline fill="#0D4286" points="298.783 823.636 290.375 812.065 286.055 816.848 286.055 823.636 280.888 823.636 280.888 796.639 286.055 796.639 286.055 809.828 298.281 796.639 304.298 796.639 294 808.055 305.03 823.636 298.783 823.636"/>
    <polyline fill="#0D4286" points="939.357 806.504 933.097 806.504 933.097 813.771 1121.87 813.771 1121.87 806.504 939.357 806.504"/>
    <polygon fill="#0D4286" points="50 813.771 238.71 813.771 238.71 806.504 50 806.504"/>
    <path fill="#A49588" d="M1070.59,601.262 C1071.04,601.663 1071.5,602.06 1071.94,602.479 C1082.77,612.769 1088.26,626.415 1088.26,643.039 C1088.26,675.653 1070.81,695.047 1038.815,698.525 L1038.815,698.525 L1038.815,744.762 C1044.763,749.082 1045.68,754.599 1045.68,757.583 L1045.68,762.408 C1045.68,770.154 1039.923,775.776 1031.99,775.776 L1031.99,775.776 L998.528,775.776 C993.507,775.776 989.318,773.273 987.062,769.4 C989.055,770.565 991.409,771.234 993.986,771.234 L993.986,771.234 L1027.448,771.234 C1035.381,771.234 1041.138,765.612 1041.138,757.866 L1041.138,757.866 L1041.13703,752.87264 C1041.10231,749.853077 1040.11085,744.46 1034.273,740.22 L1034.273,740.22 L1034.273,693.983 C1066.27,690.505 1083.72,671.111 1083.72,638.497 C1083.72,623.601 1079.29,611.104 1070.59,601.262 Z M1034.273,621.976 C1034.385,622.238 1034.483,622.497 1034.573,622.741 C1035.251,624.616 1036.389,629.294 1036.389,639.569 L1036.38803,640.073313 C1036.34987,649.897585 1035.19933,654.199767 1034.511,655.897 C1034.43,656.094 1034.35,656.278 1034.273,656.453 L1034.273,656.453 Z"/>
    <path fill="#0D4286" d="M1023.373,606.323 L1023.373,670.994 C1029.807,670.994 1034.509,670.262 1037.476,668.796 C1040.442,667.331 1042.821,664.398 1044.608,660.002 C1046.394,655.605 1047.29,648.794 1047.29,639.57 C1047.29,630.419 1046.467,623.573 1044.823,619.031 C1043.178,614.492 1040.711,611.293 1037.423,609.434 C1034.134,607.575 1029.449,606.537 1023.373,606.323 Z M1023.373,683.649 L1023.373,740.386 C1023.373,744.105 1024.73,746.893 1027.448,748.751 C1029.306,749.967 1030.237,751.397 1030.237,753.041 L1030.237,757.866 C1030.237,759.512 1029.306,760.334 1027.448,760.334 L993.987,760.334 C992.413,760.334 991.627,759.583 991.627,758.081 L991.627,753.041 C991.627,751.469 992.555,750.038 994.415,748.751 C997.132,746.82 998.49,744.031 998.49,740.386 L998.49,613.401 C998.49,609.755 997.132,607.003 994.415,605.144 C992.555,603.928 991.627,602.462 991.627,600.746 L991.627,596.026 C991.627,594.383 992.555,593.56 994.415,593.56 L1023.373,593.56 C1039.102,593.56 1051.28,597.653 1059.89,605.84 C1068.51,614.027 1072.82,624.914 1072.82,638.497 C1072.82,668.6 1056.33,683.649 1023.373,683.649 L1023.373,683.649 Z"/>
    <path fill="#A49588" d="M971.904,589.035 C975.756,591.284 978.24,595.411 978.24,600.352 L978.24,600.352 L978.24,605.282 C978.24,608.235 977.33,613.756 971.377,618.194 L971.377,618.194 L971.377,726.184 C971.377,741.692 967.15,754.245 958.813,763.493 C950.182,773.067 938.87,777.921 925.191,777.921 C911.6,777.921 900.233,773.16 891.402,763.771 C891.025,763.369 890.667,762.957 890.306,762.546 C898.581,769.738 908.765,773.379 920.649,773.379 C934.328,773.379 945.64,768.525 954.271,758.951 C962.608,749.703 966.835,737.15 966.835,721.642 L966.835,721.642 L966.835,613.652 C972.788,609.214 973.698,603.693 973.698,600.74 L973.698,600.74 L973.698,595.81 C973.698,593.293 973.044,590.992 971.904,589.035 Z M925.102,608.712 C926.094,610.327 927.507,611.966 929.492,613.489 C928.473,615.088 927.047,616.702 925.045,618.193 L925.045,618.193 L925.045,729.391 C925.045,732.34 925.273,734.528 925.58,736.15 C925.263,736.21 924.881,736.24 924.402,736.24 C922.849,736.24 922.654,735.946 922.384,735.539 C921.818,734.688 920.503,731.941 920.503,724.849 L920.503,724.849 L920.503,613.651 C922.603,612.087 924.076,610.387 925.102,608.712 Z"/>
    <path fill="#0D4286" d="M955.934,721.642 C955.934,734.433 952.68,744.437 946.175,751.653 C939.668,758.871 931.16,762.479 920.649,762.479 C910.138,762.479 901.521,758.906 894.802,751.761 C888.08,744.615 884.72,735.255 884.72,723.68 L884.72,613.388 C884.72,609.745 883.361,606.994 880.644,605.136 C878.784,603.849 877.856,602.385 877.856,600.74 L877.856,596.024 C877.856,594.383 878.784,593.56 880.644,593.56 L914.107,593.56 C915.679,593.56 916.467,594.311 916.467,595.811 L916.467,600.74 C916.467,602.385 915.536,603.849 913.678,605.135 C910.96,606.993 909.602,609.745 909.602,613.388 L909.602,724.849 C909.602,739.711 914.535,747.142 924.402,747.142 C935.198,747.142 940.597,738.426 940.597,720.991 L940.597,613.388 C940.597,609.745 939.238,606.993 936.522,605.135 C934.662,603.849 933.733,602.385 933.733,600.74 L933.733,596.024 C933.733,594.383 934.662,593.56 936.522,593.56 L960.438,593.56 C962.011,593.56 962.798,594.311 962.798,595.811 L962.798,600.74 C962.798,602.385 961.868,603.849 960.01,605.136 C957.292,606.994 955.934,609.745 955.934,613.388 L955.934,721.642"/>
    <path fill="#A49588" d="M859.605,713.773 L864.364,714.288 L863.809,724.599 C862.979,740.05 858.937,752.659 851.799,762.076 C843.938,772.442 833.092,777.921 820.429,777.921 C810.897,777.921 798.261,774.935 787.18,762.46 C797.06,771.148 807.637,773.379 815.887,773.379 C828.55,773.379 839.396,767.9 847.257,757.535 C854.396,748.117 858.437,735.508 859.267,720.057 L859.267,720.057 L859.605,713.773 Z M815.294,614.94 C816.068,615.813 817.401,617.704 818.972,621.542 C818.104,624.115 816.79,629.451 815.721,639.938 C814.549,651.44 813.955,663.256 813.955,675.058 C813.955,700.801 815.37,719.74 818.16,731.347 C818.643,733.357 819.162,735.023 819.681,736.398 C819.194,737.004 818.892,737.199 818.893,737.2 C818.893,737.2 818.864,737.206 818.798,737.206 C817.762,737.206 815.439,734.382 813.618,726.805 C810.828,715.198 809.413,696.259 809.413,670.516 C809.413,658.714 810.007,646.898 811.18,635.396 C812.583372,621.620349 814.410779,616.73079 815.093938,615.319802 L815.142426,615.221565 C815.1656,615.175546 815.187151,615.134116 815.207,615.097 C815.236,615.041 815.264,614.989 815.294,614.94 Z M853.58,590.011 C857.294,592.159 860.072,596.281 860.072,602.285 L860.072,602.285 L860.072,637.463 C860.072,646.59 853.563,651.366 847.134,651.366 L847.134,651.366 L842.415,651.366 C835.439,651.366 831.861,647.644 830.349,645.424 C830.206,645.213 830.066,644.993 829.93,644.765 C831.871,645.934 834.464,646.824 837.873,646.824 L837.873,646.824 L842.592,646.824 C849.021,646.824 855.53,642.049 855.53,632.921 L855.53,632.921 L855.53,597.743 C855.53,594.665 854.791,592.091 853.58,590.011 Z"/>
    <path fill="#0D4286" d="M848.384,719.471 C847.668,732.771 844.396,743.264 838.57,750.949 C832.742,758.636 825.18,762.479 815.887,762.479 C802.588,762.479 791.917,755.244 783.873,740.773 C775.829,726.306 771.807,705.137 771.807,677.269 C771.807,649.759 775.721,628.554 783.551,613.656 C791.38,598.758 801.443,591.308 813.742,591.308 C818.818,591.308 824.43,593.031 830.58,596.479 C831.438,596.912 832.082,597.126 832.511,597.126 C833.01,597.126 833.725,596.693 834.655,595.825 C835.155,595.104 835.763,594.706 836.478,594.632 L842.593,594.632 C843.95,594.632 844.63,595.67 844.63,597.743 L844.63,632.921 C844.63,634.923 843.95,635.924 842.593,635.924 L837.873,635.924 C836.371,635.924 835.352,635.532 834.816,634.744 C834.28,633.958 833.547,631.814 832.618,628.309 C828.256,611.792 822.5,603.534 815.35,603.534 C811.132,603.534 807.879,605.678 805.591,609.964 C803.302,614.251 801.551,622.36 800.335,634.292 C799.119,646.223 798.513,658.298 798.513,670.516 C798.513,697.236 800.014,716.851 803.02,729.354 C806.025,741.857 811.283,748.107 818.798,748.107 C827.811,748.107 833.714,738.133 836.506,718.184 L848.384,719.471"/>
    <path fill="#A49588" d="M722.615,589.034 C726.467,591.284 728.952,595.412 728.952,600.354 L728.952,600.354 L728.952,605.288 C728.952,608.237 728.05,613.798 722.089,618.275 L722.089,618.275 L722.089,762.194 C722.089,770.499 716.192,776.526 708.07,776.526 L708.07,776.526 L703.343,776.526 C697.922,776.526 693.309,773.99 690.425,769.586 C692.834,771.137 695.681,771.984 698.801,771.984 L698.801,771.984 L703.528,771.984 C711.65,771.984 717.547,765.957 717.547,757.652 L717.547,757.652 L717.547,613.733 C723.508,609.256 724.41,603.695 724.41,600.746 L724.41,595.812 C724.41,593.294 723.755,590.992 722.615,589.034 Z M660.704,700.045 L665.246,711.981 L665.246,744.734 C671.196,749.068 672.11,754.601 672.11,757.583 L672.11,762.408 C672.11,770.154 666.361,775.776 658.44,775.776 L658.44,775.776 L634.487,775.776 C629.474,775.776 625.292,773.275 623.039,769.405 C625.028,770.566 627.374,771.234 629.945,771.234 L629.945,771.234 L653.898,771.234 C661.819,771.234 667.568,765.612 667.568,757.866 L667.568,757.866 L667.568,753.041 C667.568,750.059 666.654,744.526 660.704,740.192 L660.704,740.192 L660.704,700.045 Z M666.389,589.301 L666.853296,589.574259 L666.853296,589.574259 L667.083,589.723 C670.363,592.002 671.911,595.355 672.792,597.68 L672.792,597.68 L673.222,598.815 L673.222,600.761 C673.222,605.166 675.009,609.139 678.306,612.222 L678.306,612.222 L680.086,616.915 L680.086,624.352 L668.25,593.138 C667.826,592.02 667.241,590.662 666.389,589.301 L666.389,589.301 Z"/>
    <path fill="#0D4286" d="M690.987,683.843 L690.987,613.443 C690.987,609.79 689.628,607.032 686.911,605.168 C685.052,603.95 684.123,602.481 684.123,600.761 L684.123,596.032 C684.123,594.385 685.052,593.56 686.911,593.56 L711.15,593.56 C712.721,593.56 713.51,594.311 713.51,595.812 L713.51,600.746 C713.51,602.392 712.615,603.857 710.829,605.144 C708.04,607.073 706.646,609.827 706.646,613.401 L706.646,757.652 C706.646,759.941 705.607,761.084 703.528,761.084 L698.802,761.084 C696.651,761.084 695.146,759.941 694.289,757.652 L649.804,640.75 L649.804,740.386 C649.804,744.105 651.176,746.893 653.922,748.751 C655.752,749.967 656.668,751.397 656.668,753.041 L656.668,757.866 C656.668,759.512 655.744,760.334 653.899,760.334 L629.945,760.334 C628.384,760.334 627.602,759.583 627.602,758.081 L627.602,753.041 C627.602,751.469 628.53,750.038 630.39,748.751 C633.107,746.82 634.466,744.031 634.466,740.386 L634.466,613.401 C634.466,609.755 633.107,607.003 630.39,605.144 C628.53,603.928 627.602,602.462 627.602,600.746 L627.602,596.026 C627.602,594.383 628.528,593.56 630.381,593.56 L653.034,593.56 C654.674,593.56 655.777,593.757 656.347,594.151 C656.917,594.547 657.486,595.495 658.056,597.001 L690.987,683.843"/>
    <path fill="#A49588" d="M607.773,589.035 C608.913,590.992 609.567,593.294 609.567,595.812 L609.567,600.746 C609.567,603.7 608.657,609.221 602.703,613.659 L602.703,740.22 C608.651,744.54 609.567,750.057 609.567,753.041 L609.567,757.866 C609.567,765.612 603.81,771.234 595.878,771.234 L562.416,771.234 C559.838,771.234 557.486,770.565 555.492,769.4 C557.748,773.273 561.937,775.776 566.958,775.776 L600.42,775.776 C608.352,775.776 614.109,770.154 614.109,762.408 L614.109,757.583 C614.109,754.599 613.193,749.082 607.245,744.762 L607.245,618.201 C613.199,613.763 614.109,608.242 614.109,605.288 L614.109,600.354 C614.109,595.412 611.625,591.284 607.773,589.035"/>
    <path fill="#0D4286" d="M591.803,740.386 C591.803,744.105 593.16,746.893 595.878,748.751 C597.736,749.967 598.667,751.397 598.667,753.041 L598.667,757.866 C598.667,759.512 597.736,760.334 595.878,760.334 L562.417,760.334 C560.843,760.334 560.057,759.583 560.057,758.081 L560.057,753.041 C560.057,751.469 560.985,750.038 562.845,748.751 C565.561,746.82 566.92,744.031 566.92,740.386 L566.92,613.401 C566.92,609.755 565.561,607.003 562.845,605.144 C560.985,603.928 560.057,602.462 560.057,600.746 L560.057,596.026 C560.057,594.383 560.985,593.56 562.845,593.56 L596.307,593.56 C597.88,593.56 598.667,594.311 598.667,595.812 L598.667,600.746 C598.667,602.392 597.736,603.857 595.878,605.144 C593.16,607.073 591.803,609.827 591.803,613.401 L591.803,740.386"/>
    <path fill="#A49588" d="M541.119,586.994 C545.052,589.306 547.528,593.507 547.528,598.638 L547.528,598.638 L547.528,630.706 C547.528,638.824 541.771,644.717 533.839,644.717 L533.839,644.717 L529.764,644.717 C525.588,644.717 522.422,643.335 520.18,641.384 L520.18,641.384 L520.18,744.762 C526.128,749.082 527.044,754.599 527.044,757.583 L527.044,762.408 C527.044,770.154 521.287,775.776 513.354,775.776 L513.354,775.776 L479.893,775.776 C474.871,775.776 470.682,773.273 468.427,769.4 C470.42,770.565 472.773,771.234 475.351,771.234 L475.351,771.234 L508.812,771.234 C516.745,771.234 522.502,765.612 522.502,757.866 L522.502,757.866 L522.501031,752.87264 C522.466348,749.853077 521.475852,744.46 515.638,740.22 L515.638,740.22 L515.638,636.842 C517.88,638.793 521.046,640.175 525.222,640.175 L525.222,640.175 L529.297,640.175 C537.229,640.175 542.986,634.282 542.986,626.164 L542.986,626.164 L542.986,594.096 C542.986,591.433 542.308,589.025 541.119,586.994 Z M468.954,637.335 L468.954,644.184 C467.74,644.525 466.448,644.717 465.093,644.717 L465.093,644.717 L460.909,644.717 C455.335,644.717 450.786,642.13 448.334,638.037 C450.595,639.398 453.326,640.175 456.367,640.175 L456.367,640.175 L460.551,640.175 C463.794,640.175 466.701,639.136 468.954,637.335 L468.954,637.335 Z"/>
    <path fill="#0D4286" d="M504.737,606.001 L504.737,740.386 C504.737,744.105 506.095,746.893 508.813,748.751 C510.671,749.967 511.601,751.397 511.601,753.041 L511.601,757.866 C511.601,759.512 510.671,760.334 508.813,760.334 L475.351,760.334 C473.777,760.334 472.991,759.583 472.991,758.081 L472.991,753.041 C472.991,751.469 473.919,750.038 475.78,748.751 C478.496,746.82 479.855,744.031 479.855,740.386 L479.855,606.001 L475.136,606.001 C471.632,606.001 469.039,607.324 467.361,609.969 C465.68,612.615 464.16,618.441 462.802,627.451 C462.658,628.667 461.908,629.274 460.55,629.274 L456.367,629.274 C453.936,629.274 452.721,628.239 452.721,626.164 L452.721,594.954 C452.721,592.524 453.864,591.308 456.153,591.308 C457.582,591.308 460.121,591.595 463.767,592.166 C469.629,593.096 474.064,593.56 477.067,593.56 L515.033,593.56 C516.964,593.274 519.323,592.881 522.112,592.381 C526.402,591.736 528.762,591.414 529.19,591.414 C531.12,591.414 532.086,592.31 532.086,594.096 L532.086,626.164 C532.086,628.239 531.156,629.274 529.298,629.274 L525.222,629.274 C523.576,629.274 522.594,628.811 522.273,627.88 C521.95,626.952 521.431,624.628 520.718,620.909 C519.43,614.761 518.106,610.738 516.749,608.844 C515.39,606.949 512.995,606.001 509.564,606.001 L504.737,606.001"/>
    <path fill="#A49588" d="M408.705,714.559 C412.639,716.857 415.122,721.087 415.122,726.266 L415.122,726.266 L415.122,775.776 L330.754,775.776 C325.698,775.776 321.472,773.256 319.166,769.349 C321.194,770.545 323.588,771.234 326.213,771.234 L326.213,771.234 L410.58,771.234 L410.58,721.724 C410.58,719.032 409.899,716.604 408.705,714.559 Z M390.369,646.273 C394.303,648.577 396.782,652.793 396.782,657.947 L396.782,657.947 L396.782,698.38 C396.782,702.302 395.267,705.725 392.767,708.142 L392.767,708.142 L392.386,708.142 C389.257,708.142 385.713,709.216 382.816,711.856 L382.816,711.856 L378.374,711.856 C374.987,711.856 372.445,710.863 370.613,709.672 L370.613,709.672 L370.613,736.648 C370.322,736.661 370.003,736.67 369.649,736.67 L369.649,736.67 L366.071,736.67 L366.071,705.13 C367.903,706.321 370.445,707.314 373.832,707.314 L373.832,707.314 L378.765,707.314 C386.447,707.314 392.24,701.521 392.24,693.838 L392.24,693.838 L392.24,653.405 C392.24,650.728 391.561,648.311 390.369,646.273 Z M404.516,588.576 C408.731,591.015 410.725,595.299 410.725,599.389 L410.725,599.389 L410.724655,631.22286 C410.717407,633.452213 410.557955,638.069045 407.05,641.577 C403.536422,645.090578 398.89153,645.246737 396.871458,645.253677 L392.638,645.254 C391.526,645.254 390.459,645.118 389.435,644.884 C387.635,642.568 385.061,640.925 381.989,640.22 C381.627,639.766 381.288,639.289 380.982,638.784 C383.038,640.018 385.458,640.712 388.096,640.712 L388.096,640.712 L392.329458,640.711677 C394.34953,640.704737 398.994422,640.548578 402.508,637.035 C406.015955,633.527045 406.175407,628.910213 406.182655,626.68086 L406.183,594.847 C406.183,592.713 405.63,590.529 404.516,588.576 Z M368.684,617.438 C370.233,617.438 371.058,617.637 371.412,617.756 C372.036,619.017 372.577,620.432 373.044,621.98 L373.044,621.98 L370.613,621.98 L370.613,640.067 C369.223,640.315 367.619,640.811 366.071,641.813 L366.071,641.813 L366.071,617.438 Z"/>
    <path fill="#0D4286" d="M399.68,760.334 L326.213,760.334 C324.497,760.334 323.639,759.476 323.639,757.759 L323.639,753.041 C323.639,751.539 324.819,749.896 327.179,748.107 C329.251,746.463 330.288,743.89 330.288,740.386 L330.288,613.401 C330.288,609.685 328.965,606.897 326.32,605.036 C324.532,603.82 323.639,602.392 323.639,600.746 L323.639,595.598 C323.639,594.24 324.497,593.56 326.213,593.56 L381.339,593.56 C382.34,593.56 384.235,593.453 387.023,593.238 C389.526,593.023 391.099,592.916 391.743,592.916 C394.102,592.916 395.282,593.56 395.282,594.847 L395.282,626.379 C395.282,628.024 395.121,629.006 394.799,629.327 C394.477,629.649 393.566,629.811 392.064,629.811 L388.096,629.811 C386.38,629.811 385.415,628.811 385.2,626.808 C384.413,621.231 383.002,616.458 380.964,612.489 C378.927,608.522 374.832,606.537 368.684,606.537 L355.17,606.537 L355.17,667.24 L360.104,667.24 C363.177,667.24 365.287,666.651 366.431,665.472 C367.575,664.292 369.006,660.592 370.721,654.371 C371.293,652.37 371.687,651.26 371.902,651.046 C372.116,650.832 372.759,650.725 373.832,650.725 L378.551,650.725 C380.409,650.725 381.339,651.619 381.339,653.405 L381.339,693.838 C381.339,695.555 380.482,696.413 378.765,696.413 L373.832,696.413 C372.759,696.413 372.009,696.145 371.579,695.608 C371.151,695.072 370.577,693.41 369.864,690.621 C368.576,685.545 367.182,682.453 365.68,681.345 C364.18,680.236 362.105,679.682 359.46,679.682 L355.17,679.682 L355.17,747.571 L369.649,747.571 C375.012,747.571 378.729,746.303 380.803,743.764 C382.876,741.227 385.45,734.272 388.525,722.903 C389.239,720.329 390.526,719.043 392.386,719.043 L396.998,719.043 C398.784,719.043 399.68,719.937 399.68,721.724 L399.68,760.334"/>
    <path fill="#A49588" d="M303.487,589.033 C307.339,591.282 309.824,595.411 309.824,600.354 L309.824,600.354 L309.824,605.288 C309.824,610.315 307.429,614.892 303.067,618.224 L303.067,618.224 L303.067,744.734 C309.017,749.068 309.93,754.601 309.93,757.583 L309.93,762.408 C309.93,770.154 304.177,775.776 296.25,775.776 L296.25,775.776 L262.881,775.776 C259.853,775.776 257.125,774.868 254.941,773.299 C252.693,774.876 249.867,775.776 246.692,775.776 L246.692,775.776 L213.23,775.776 C208.209,775.776 204.02,773.273 201.765,769.4 C203.758,770.565 206.111,771.234 208.688,771.234 L208.688,771.234 L242.15,771.234 C245.325,771.234 248.151,770.334 250.4,768.757 C252.583,770.327 255.311,771.234 258.339,771.234 L258.339,771.234 L291.708,771.234 C299.635,771.234 305.389,765.612 305.389,757.866 L305.389,757.866 L305.389,753.041 C305.389,750.059 304.475,744.526 298.525,740.192 L298.525,740.192 L298.525,613.682 C302.887,610.35 305.282,605.773 305.282,600.746 L305.282,600.746 L305.282,595.812 C305.282,593.293 304.627,590.991 303.487,589.033 Z M251.949,689.831 L251.949,740.161 C251.408,740.566 250.909,740.981 250.448,741.4 C249.995,740.999 249.505,740.605 248.975,740.22 L248.975,740.22 L248.975,689.831 L251.949,689.831 Z M250.386,612.507 C250.865,612.931 251.385,613.347 251.949,613.752 L251.949,613.752 L251.949,653.016 L248.975,653.016 L248.975,613.659 C249.481,613.282 249.951,612.898 250.386,612.507 Z"/>
    <path fill="#0D4286" d="M287.624,613.401 L287.624,740.386 C287.624,744.105 288.997,746.893 291.743,748.751 C293.574,749.967 294.488,751.397 294.488,753.041 L294.488,757.866 C294.488,759.512 293.562,760.334 291.708,760.334 L258.338,760.334 C256.77,760.334 255.986,759.583 255.986,758.081 L255.986,753.041 C255.986,751.469 256.879,750.038 258.667,748.751 C261.455,746.82 262.85,744.031 262.85,740.386 L262.85,678.931 L238.075,678.931 L238.075,740.386 C238.075,744.105 239.432,746.893 242.15,748.751 C244.009,749.967 244.939,751.397 244.939,753.041 L244.939,757.866 C244.939,759.512 244.009,760.334 242.15,760.334 L208.688,760.334 C207.115,760.334 206.329,759.583 206.329,758.081 L206.329,753.041 C206.329,751.469 207.257,750.038 209.117,748.751 C211.834,746.82 213.193,744.031 213.193,740.386 L213.193,613.401 C213.193,609.755 211.834,607.003 209.117,605.144 C207.257,603.928 206.329,602.462 206.329,600.746 L206.329,596.026 C206.329,594.383 207.257,593.56 209.117,593.56 L242.579,593.56 C244.152,593.56 244.939,594.311 244.939,595.812 L244.939,600.746 C244.939,602.392 244.009,603.857 242.15,605.144 C239.432,607.073 238.075,609.827 238.075,613.401 L238.075,663.916 L262.85,663.916 L262.85,613.401 C262.85,609.755 261.455,607.003 258.667,605.144 C256.807,603.928 255.878,602.462 255.878,600.746 L255.878,596.026 C255.878,594.383 256.805,593.56 258.659,593.56 L292.028,593.56 C293.597,593.56 294.381,594.311 294.381,595.812 L294.381,600.746 C294.381,602.392 293.501,603.857 291.742,605.144 C288.997,607.073 287.624,609.827 287.624,613.401"/>
    <path fill="#A49588" d="M187.391,586.994 C191.324,589.306 193.8,593.507 193.8,598.638 L193.8,598.638 L193.8,630.706 C193.8,638.824 188.043,644.717 180.112,644.717 L180.112,644.717 L176.036,644.717 C171.86,644.717 168.694,643.335 166.452,641.384 L166.452,641.384 L166.452,744.762 C172.4,749.082 173.316,754.599 173.316,757.583 L173.316,757.583 L173.316,762.408 C173.316,770.154 167.559,775.776 159.626,775.776 L159.626,775.776 L126.165,775.776 C121.143,775.776 116.954,773.273 114.7,769.4 C116.693,770.565 119.045,771.234 121.623,771.234 L121.623,771.234 L155.084,771.234 C163.017,771.234 168.774,765.612 168.774,757.866 L168.774,757.866 L168.774,753.041 C168.774,750.057 167.858,744.54 161.91,740.22 L161.91,740.22 L161.91,636.842 C164.152,638.793 167.318,640.175 171.494,640.175 L171.494,640.175 L175.57,640.175 C183.501,640.175 189.258,634.282 189.258,626.164 L189.258,626.164 L189.258,594.096 C189.258,591.433 188.581,589.025 187.391,586.994 Z M115.226,637.335 L115.226,644.184 C114.012,644.525 112.72,644.717 111.365,644.717 L111.365,644.717 L107.181,644.717 C101.607,644.717 97.058,642.13 94.606,638.037 C96.867,639.398 99.599,640.175 102.639,640.175 L102.639,640.175 L106.823,640.175 C110.066,640.175 112.974,639.136 115.226,637.335 L115.226,637.335 Z"/>
    <path fill="#0D4286" d="M151.01,606.001 L151.01,740.386 C151.01,744.105 152.367,746.893 155.085,748.751 C156.943,749.967 157.873,751.397 157.873,753.041 L157.873,757.866 C157.873,759.512 156.943,760.334 155.085,760.334 L121.623,760.334 C120.049,760.334 119.263,759.583 119.263,758.081 L119.263,753.041 C119.263,751.469 120.192,750.038 122.052,748.751 C124.768,746.82 126.127,744.031 126.127,740.386 L126.127,606.001 L121.408,606.001 C117.904,606.001 115.311,607.324 113.633,609.969 C111.952,612.615 110.432,618.441 109.075,627.451 C108.93,628.667 108.18,629.274 106.823,629.274 L102.64,629.274 C100.208,629.274 98.993,628.239 98.993,626.164 L98.993,594.954 C98.993,592.524 100.136,591.308 102.425,591.308 C103.854,591.308 106.393,591.595 110.039,592.166 C115.902,593.096 120.336,593.56 123.339,593.56 L161.305,593.56 C163.236,593.274 165.595,592.881 168.384,592.381 C172.674,591.736 175.034,591.414 175.462,591.414 C177.393,591.414 178.358,592.31 178.358,594.096 L178.358,626.164 C178.358,628.239 177.428,629.274 175.57,629.274 L171.494,629.274 C169.848,629.274 168.867,628.811 168.545,627.88 C168.222,626.952 167.703,624.628 166.99,620.909 C165.702,614.761 164.378,610.738 163.021,608.844 C161.662,606.949 159.267,606.001 155.836,606.001 L151.01,606.001"/>
    <polygon fill="#0D4286" points="50 545.189 436.928 545.189 436.928 537.922 50 537.922"/>
    <polygon fill="#0D4286" points="756.846 545.189 1121.87 545.189 1121.87 537.922 756.846 537.922"/>
    <path fill="#0D4286" stroke="#0D4286" d="M735.789,543.108 C735.789,544.57 673.703,545.754 597.117,545.754 C520.53,545.754 458.445,544.57 458.445,543.108 C458.445,541.647 520.53,540.462 597.117,540.462 C673.703,540.462 735.789,541.647 735.789,543.108"/>
    <path fill="#A49588" d="M735.479,270.149 C739.806,270.149 743.483,273.275 744.031,277.421 C744.272,279.24 743.898,281.042 743.04,282.591 C743.285,282.858 743.307,283.466 743.02,283.685 C742.564,284.033 742.073,284.317 741.555,284.551 C741.267,284.831 740.962,285.094 740.632,285.334 C738.652,286.772 737.427,288.745 737.181,290.89 L737.181,290.89 L735.079,309.31 C734.967,310.296 735.254,311.259 735.888,312.023 C736.294,312.51 736.812,312.856 737.387,313.073 C737.573,313.063 737.732,313.116 737.862,313.22 C738.042,313.26 738.221,313.3 738.41,313.313 C762.789,315.012 785.388,328.198 798.861,348.587 L798.861,348.587 L808.243,362.781 C825.74,389.256 825.74,423.471 808.243,449.946 L808.243,449.946 L798.861,464.142 C785.388,484.53 762.789,497.716 738.411,499.415 L738.411,499.415 L716.166,500.965 C714.433,501.085 713.033,502.426 712.836,504.152 L712.836,504.152 L710.931,520.838 C710.617,523.59 711.556,526.211 713.443,527.848 C715.588,529.709 716.644,532.497 716.272,535.308 C715.724,539.453 712.048,542.579 707.719,542.579 L707.719,542.579 L486.543,542.579 C482.216,542.579 478.539,539.453 477.991,535.308 C477.618,532.496 478.676,529.707 480.82,527.848 C482.707,526.211 483.646,523.591 483.331,520.839 L483.331,520.839 L457.081,290.889 C456.836,288.745 455.611,286.772 453.632,285.334 C452.992,284.869 452.432,284.322 451.957,283.717 L451.957,283.717 L451.925,283.696 C451.839,283.632 451.782,283.525 451.741,283.405 C450.518,281.695 449.947,279.569 450.231,277.42 C450.78,273.275 454.456,270.149 458.784,270.149 L458.784,270.149 Z M459.879,275.972 C459.79,276.095 459.689,276.198 459.559,276.246 C458.867,276.497 458.08,276.874 457.432,277.353 C457.325,278.466 458.036,279.336 457.972,280.411 C457.966,280.508 457.954,280.614 457.934,280.719 C460.53,280.595 463.269,280.919 465.597,280.931 C470.671,280.957 475.743,281.174 480.814,281.337 C491.495,281.68 502.317,281.66 512.952,282.757 C513.263,282.789 513.286,283.43 512.969,283.463 C502.358,284.564 491.558,284.541 480.901,284.883 C475.555,285.055 470.209,285.272 464.86,285.293 C463.8,285.297 462.664,285.364 461.502,285.418 C461.976,287.145 462.383,288.904 462.732,290.689 C464.476,290.336 466.479,290.816 468.421008,291.022 C472.108,291.413 475.714,292.292 479.388,292.714 C479.52,292.73 479.531,293.001 479.395,293.017 C475.748,293.439 472.173,294.318 468.511,294.709 C466.814,294.89 465.083,295.273 463.509,295.142 C463.726,296.582 463.916,298.031 464.095,299.481 C466.903,299.054 470.034,299.645 472.775,299.893 C477.517,300.323 482.269,300.476 486.95,301.412 C487.482,301.519 487.347,302.606 486.867,302.702 C481.976,303.687 477.008,303.782 472.057,304.267 C469.712,304.496 467.112,304.912 464.695,304.667 C464.872,306.276 465.048,307.88 465.232,309.468 C466.892,309.348 468.666,309.8 470.614,309.981 C474.557,310.349 478.583,310.652 482.533,310.881 C490.469,311.341 498.41,311.583 506.354,312.073 C506.622,312.09 506.639,312.662 506.369,312.678 C498.445,313.169 490.523,313.41 482.606,313.871 C478.672,314.1 474.661,314.414 470.732,314.77 C469.03,314.925 467.453,315.288 465.964,315.299 C466.13,316.56 466.292,317.822 466.457,319.083 C468.555,319.219 470.665,319.6 472.715,319.884 C475.345,320.248 478.192,320.439 480.638,321.496 C481.059,321.678 481.109,322.567 480.669,322.76 C478.259,323.815 475.421008,324.017 472.825,324.378 C470.991,324.634 469.117,324.969 467.245,325.133 C467.453,326.749 467.665,328.363 467.872,329.979 C470.467,329.871 473.354,330.765 475.898,331.008 C480.537,331.452 485.241,331.522 489.791,332.578 C490.096,332.649 490.129,333.412 489.813,333.486 C486.794333,334.188667 483.712111,334.456667 480.625,334.688815 L478.772616,334.826992 C477.8466,334.89712 476.9212,334.9712 475.998,335.06 C473.672,335.284 471.071,336.037 468.658,336.089 C468.845,337.545 469.032,339.001 469.22,340.457 C477.538,341.626 485.958,341.762 494.297,342.792 C494.799,342.854 494.839,343.871 494.325,343.935 C488.729,344.629 483.096,344.868 477.482,345.364 C474.965,345.586 472.462,345.908 469.955,346.181 C470.297,348.831 470.636,351.481 470.976,354.131 C474.289,353.52 478.039,354.459 481.37,354.681 C486.426,355.018 491.765,354.756 496.721,355.829 C497.339,355.963 497.174,357.198 496.625,357.318 C491.495,358.432 485.861,358.138 480.62,358.501 C477.672,358.705 474.519,359.437 471.612,359.081 C471.866,361.063 472.123,363.045 472.376,365.028 C474.522,364.715 476.823,365.022 479.091,365.159 C483.586,365.43 488.081,365.701 492.577,365.972 C501.519,366.511 510.663,366.447 519.548,367.567 C519.961,367.62 519.995,368.455 519.571,368.509 C510.714,369.632 501.594,369.565 492.678,370.104 L492.678,370.104 L479.232,370.917 C479.005889,370.930667 478.779272,370.946025 478.55235,370.962296 L477.188778,371.064667 C475.824778,371.165556 474.464333,371.243333 473.151,371.13 C473.464,373.588 473.772,376.046 474.082,378.503 C476.193,378.42 478.543,379.207 480.803,379.4 C484.76,379.738 488.835,379.586 492.68,380.65 C493.072,380.759 493.117,381.704 492.709,381.817 C488.891,382.879 484.827,382.77 480.893,383.073 C478.843,383.231 476.726,383.889 474.771,383.956 C475.05,386.174 475.333,388.392 475.611,390.61 C478.704,389.821 482.662,390.821 485.665,391.02 C486.740111,391.091333 487.821543,391.138173 488.905324,391.180447 L490.532259,391.242926 C493.787667,391.371 497.046333,391.547667 500.201,392.311 C500.854,392.468 500.927,394.091 500.249,394.255 C495.535,395.399 490.596,395.233 485.777,395.554 C482.931,395.744 479.299,396.635 476.295,396.105 C476.547,398.126 476.795,400.148 477.046,402.17 C477.497,402.105 477.941,402.057 478.367,402.058 C479.521,402.058 480.798,402.383 481.953,402.493 C484.39,402.723 486.953,402.667 489.238,403.604 C489.627,403.764 489.673,404.602 489.266,404.771 C487.004,405.71 484.46,405.689 482.037,405.888 C480.917,405.98 479.581,406.362 478.472,406.323 C478.166,406.312 477.858,406.274 477.549,406.236 C477.75,407.863 477.953,409.489 478.153,411.116 C481.008,411.005 483.842,411.629 486.811,411.743 C491.399,411.917 496.076,411.842 500.605,412.649 C501.236,412.761 501.295,413.977 500.641,414.094 C497.622333,414.636667 494.553889,414.751333 491.486037,414.839185 L489.6458,414.891888 C488.72612,414.91984 487.8074,414.9526 486.891,415.001 C484.123,415.146 481.414,415.688 478.715,415.65 C479.035,418.269 479.351,420.888 479.67,423.506 C482.741,422.862 486.571,423.746 489.433,423.937 C494.339,424.264 499.327,424.473 504.142,425.507 C504.554,425.596 504.445,426.421 504.078,426.5 C499.072,427.581 493.832,427.768 488.725,428.109 C486.186,428.28 483.012,428.947 480.281,428.562 C480.563,430.891 480.846,433.22 481.126,435.55 C483.044,435.41 485.032,435.657 486.987,435.801 C490.856,436.086 494.728,436.166 498.604,436.301 C506.292,436.57 514.231,436.236 521.839,437.375 C522.427,437.462 522.478,438.627 521.871,438.719 C514.285,439.862 506.358,439.523 498.689,439.792 C494.822,439.928 490.957,439.998 487.097,440.293 C485.316,440.428 483.5,440.639 481.733,440.569 C481.809,441.2 481.887,441.831 481.962,442.463 C482.153,444.056 482.342,445.65 482.532,447.244 C483.193,447.237 483.955,447.326 484.893,447.45 C488.72,447.955 492.45,448.208 496.313,448.323 C503.609,448.54 511.158,448.314 518.393,449.307 C519.085,449.402 519.144,450.789 518.431,450.887 C511.219,451.884 503.675,451.655 496.4,451.872 C492.448,451.99 488.706,452.286 484.785,452.776 C484.186,452.851 483.669,452.911 483.21,452.943 C483.506,455.439 483.798,457.936 484.091,460.433 C485.525,460.35 486.812,460.42 487.186,460.449 C493.847,460.96 501.109,461.082 507.649,462.4 C508.399,462.551 508.208,464.083 507.532,464.22 C502.264,465.288 496.706,465.038 491.366,465.705 C489.395,465.951 486.989,466.493 484.798,466.459 C485.071,468.808 485.336,471.158 485.604,473.508 C487.388,473.683 489.26,474.266 491.171,474.463 C494.923,474.851 498.758,475.04 502.446,475.843 C502.996,475.962 502.849,477.059 502.361,477.166 C498.486,478.013 494.423,478.197 490.478,478.606 C488.992,478.76 487.602,479.14 486.272,479.359 C486.533,481.688 486.784,484.018 487.039,486.347 C487.594,486.408 488.187,486.481 488.841,486.537 C491.606,486.771 494.387,486.87 497.158,486.987 C502.617,487.218 508.673,486.77 513.966,488.19 C514.585,488.356 514.656,489.864 514.011,490.038 C508.742,491.459 502.7,491.019 497.263,491.249 C494.221,491.378 491.171,491.5 488.139,491.78 C487.967,491.796 487.801,491.813 487.638,491.829 C487.653,491.96 487.668,492.092 487.682,492.224 C487.909,494.347 488.149,496.472 488.392,498.598 C489.594,498.817 490.801,499.106 491.968,499.223 C494.912,499.518 497.892,499.529 500.752,500.339 C501.306,500.495 501.37,501.828 500.793,501.992 C497.947,502.801 494.994,502.82 492.063,503.115 C491.059,503.216 490.016,503.445 488.97,503.646 C489.239,506.012 489.499,508.379 489.74,510.746 C493.726,510.503 498.404,511.51 501.72,511.714 C502.42075,511.757375 503.122,511.798672 503.823436,511.839936 L505.927984,511.965672 C510.136937,512.225125 514.34125,512.557 518.473,513.403 C518.801,513.47 518.717,514.136 518.422,514.197 C513.845235,515.138353 509.1521,515.45926 504.472278,515.726745 L502.313777,515.848472 C501.594907,515.889159 500.876824,515.930647 500.16,515.975 C497.191,516.159 493.604,516.885 490.292,516.792 C490.309,516.998 490.332,517.203 490.348,517.409 C490.54,519.853 490.574,522.325 490.05,524.699 C490.114,524.701 490.173,524.703 490.238,524.704 C493.521,524.76 496.808,525.001 500.087,525.18 C506.366,525.524 512.856,525.437 519.049,526.585 C519.388,526.647 519.306,527.354 518.996,527.412 C512.598,528.606 505.846,528.492 499.357,528.848 C496.088,529.027 492.806,529.284 489.531,529.305 C488.934,529.309 488.428,529.327 487.981,529.33 C487.088,530.601 486.046,531.985 485.624,533.292 C487.49,533.62 489.279,533.998 491.128,534.616 L491.128,534.616 L491.16,534.632 C491.742,534.612 492.326,534.601 492.918,534.594 C494.427,534.577 495.887,534.454 497.241,535.209 C497.411,535.303 497.47,535.541 497.422,535.738 C498.685,535.776 499.92,535.822 501.076,535.81 C505.928,535.76 510.782,535.788 515.634,535.776 C525.055,535.754 534.475,535.719 543.895,535.745 C553.602,535.771 563.309,535.8 573.015,535.843 C580.914,535.878 589.431,535.133 597.385,536.134 C605.883,534.997 615.05,535.873 623.513,535.835 C632.933,535.793 642.352,535.768 651.772,535.743 C661.478,535.716 671.185,535.758 680.891,535.78 C685.459,535.791 690.028,535.766 694.596,535.825 C695.527,535.837 696.51,535.812 697.515,535.786 C697.434,535.585 697.469,535.319 697.657,535.212 C699.091,534.397 700.701,534.58 702.303,534.598 C702.706,534.603 703.103,534.609 703.499,534.622 C703.649,534.407 703.837,534.267 704.068,534.255 C704.915,534.212 707.08,534.609 707.781,534.158 C709.164,533.268 708.453,530.968 707.83,529.333 C707.009,529.42 706.014,529.302 704.68,529.279 C701.395,529.223 698.108,528.982 694.83,528.803 C688.552,528.459 682.061,528.546 675.868,527.398 C675.529,527.336 675.61,526.629 675.921008,526.571 C682.318,525.376 689.07,525.492 695.559,525.135 C698.829,524.956 702.111,524.699 705.386,524.678 C705.677,524.676 705.942,524.67 706.195,524.665 C705.814,523.438 705.49,522.195 705.298,520.911 C705.096,519.564 705.04,518.208 705.076,516.844 C701.112,517.064 696.486,516.075 693.197,515.872 C692.846625,515.850375 692.496125,515.829262 692.145539,515.808406 L690.041311,515.684316 C685.481285,515.413312 680.920062,515.099687 676.444,514.184 C676.116,514.117 676.2,513.451 676.495,513.39 C682.48,512.158 688.664,511.989 694.757,511.611 C698.054,511.407 702.114,510.533 705.711,510.856 C706.092,508.502 706.559,506.146 706.893,503.805 C705.571,503.582 704.235,503.244 702.949,503.115 C700.005,502.82 697.025,502.809 694.165,501.999 C693.611,501.842 693.547,500.51 694.124,500.346 C696.97,499.537 699.923,499.518 702.853,499.223 C704.399,499.067 706.036,498.61 707.635,498.418 C708.007,497.772 708.582,497.744 708.919,498.333 C709.28,498.331 709.638,498.354 709.989,498.404 C710.899,497.442 712.065,496.672 713.58,496.2 C717.539,494.967 722.063,495.092 726.166,494.704 C730.71,494.273 735.258,493.874 739.783,493.271 C741.483,493.044 743.181,492.783 744.876,492.5 C743.8,492.045 742.701,491.567 741.487,491.105 C740.899,490.88 740.99,489.465 741.715,489.639 C746.106,490.695 751.036,489.99 755.711,490.201 C760.246,489.001 764.669,487.496 768.88,485.57 C767.353,485.545 765.846,485.221 764.871,484.201 C764.486,483.798 764.384,482.985 764.831,482.575 C766.428,481.114 769.207,481.248 771.302,481.009 C773.114,480.802 775.154,480.251 777.044,480.336 C779.146,478.623 781.14,476.787 783.049,474.861 C781.074,475.442 779.105,475.72 777.315,475.422 C776.52,475.29 776.435,474.05 776.935,473.551 C779.951,470.547 784.697,469.048 789.074,468.158 C793.472,462.797 797.393,457.006 801.068,451.189 C801.782,450.059 802.478,448.913 803.164,447.758 C803.026,447.852 802.89,447.947 802.753,448.04 C800.257,449.732 797.096,452.297 793.927,452.018 C792.839,451.921 792.95,450.293 793.451,449.679 C794.7029,448.145 796.44321,447.0842 798.20342,446.084937 L799.015531,445.626609 C799.690625,445.245812 800.358,444.86475 800.991,444.46 C803.128,443.095 805.125,441.351 807.364,440.119 C809.949,434.998 812.154,429.685 813.783,424.208 C812.433,425.545 810.737,426.771 809.304,426.283 C808.865,426.134 808.874,425.473 808.965,425.13 C809.605,422.732 812.044,420.637 813.673,418.815 C814.299,418.115 814.985,417.071 815.733,416.082 C816.08,414.168 816.355,412.238 816.54,410.291 C816.992,405.524 816.884,400.683 816.143,395.946 C815.207,398.303 813.822,400.392 812.028,401.737 C810.94,402.554 810.722,400.519 811.033,399.887 C812.26,397.39 813.702,394.996 814.451,392.293 C814.649,391.577 814.782,390.858 814.883,390.137 C814.533,388.888 814.152,387.648 813.699,386.43 C812.824,384.076 811.743,381.812 810.559,379.597 C809.993,381.629 809.067,383.481 807.8,384.848 C806.81,385.914 806.369,383.593 806.531,383.015 C807.236,380.492 807.922,378.46 807.95,375.79 C807.952,375.524 807.946,375.263 807.935,375.003 C806.257,372.226 804.491,369.498 802.801,366.759 C800.808,363.532 798.859,360.266 796.873,357.024 C796.73,358.839 796.346,360.583 795.663,362.132 C795.475678,362.556709 795.24291,362.814325 794.997053,362.939322 C795.623863,363.659115 795.474769,365.385022 794.464,365.45 C794.32,365.459 794.177,365.468 794.034,365.478 C793.344,365.522 793.081,364.575 793.054,364.062 C793.0284,363.605771 793.253576,362.724896 793.800603,362.610105 C793.504562,362.277913 793.299304,361.776444 793.295,361.223 C793.275,358.668 793.618,356.135 793.43,353.576 C793.381,352.89 793.305,352.063 793.195,351.193 C792.538,350.18 791.887,349.162 791.209,348.164 C787.805,343.155 783.619,339.23 778.947,335.624 C779.101,336.819 779.078,337.987 778.837,339.068 C778.695,339.705 777.972,340.538 777.43,339.674 C776.102,337.557 775.488,334.999 774.181,332.825 C773.896,332.351 773.584,331.903 773.261,331.466 C768.265,327.938 763.157,324.611 757.352,322.523 C757.191,322.465 757.029,322.423 756.868,322.367 C757.482,323.462 757.901,324.594 758.052,325.718 C758.102,326.1 757.932,327.549 757.177,327.126 C756.0255,326.4825 755.04975,325.53675 754.09325,324.556 L753.377039,323.818051 C752.659547,323.081891 751.930875,322.363625 751.125,321.776 C750.365,321.223 749.593,320.79 748.809,320.419 C744.551,319.78 740.23,319.656 735.836,319.732 C735.074,319.745 734.639,319.092 734.513,318.314 C733.201,317.957 732,317.295 731.17,316.416 C730.718,317.026 730.047,316.302 729.793,315.272 C728.101,315.421 726.293,314.956 724.303,314.77 C720.36,314.402 716.334,314.1 712.385,313.871 C704.448,313.411 696.507,313.168 688.562,312.678 C688.295,312.662 688.278,312.09 688.548,312.073 C696.472,311.583 704.394,311.342 712.311,310.881 C716.245,310.652 720.256,310.338 724.185,309.981 C726.403,309.78 728.407,309.23 730.281,309.562 C730.369,308.866 730.457,308.17 730.544,307.475 C730.536,306.538 730.563,305.593 730.619,304.643 C727.864,305.012 724.817,304.443 722.142,304.201 C717.399,303.771 712.648,303.618 707.967,302.682 C707.435,302.575 707.57,301.488 708.05,301.391 C712.941,300.407 717.909,300.312 722.859,299.827 C725.509,299.567 728.483,299.069 731.15,299.557 C731.361,298.07 731.611,296.581 731.877,295.097 C730.207,295.34 728.324,294.903 726.496,294.709 C722.808,294.318 719.203,293.439 715.529,293.017 C715.396,293.001 715.386,292.73 715.522,292.714 C719.169,292.292 722.744,291.412 726.406,291.022 C728.56,290.792 730.765,290.244 732.639,290.825 L732.639,290.825 L733.175,286.578 C733.18,286.358 733.188,286.14 733.192,285.92 C733.195,285.755 733.206,285.601 733.223,285.457 C731.863,285.387 730.535,285.296 729.319,285.29 C724.246,285.263 719.174,285.046 714.102,284.883 C703.422,284.541 692.6,284.561 681.965,283.463 C681.654,283.431 681.631,282.79 681.948,282.757 C692.558,281.657 703.358,281.679 714.015,281.337 C719.362,281.165 724.708,280.948 730.057,280.927 C732.195,280.919 734.645,280.657 736.993,280.758 C736.967,280.653 736.951,280.545 736.945,280.442 C736.879,279.364 737.59,278.478 737.494,277.37 L737.494,277.37 L737.488,277.335 C736.861,276.871 736.101,276.503 735.418,276.256 C735.266,276.202 735.15,276.1 735.052,275.98 C730.001,276.386 724.852,276.125 719.808,276.131 C713.855,276.138 707.901,276.122 701.948,276.169 C690.327,276.26 678.705,276.378 667.083,276.402 C655.177,276.426 643.27,276.45 631.363,276.474 C620.166,276.497 608.698,277.176 597.505,276.393 C586.035,277.202 574.274,276.496 562.8,276.472 C551.176,276.449 539.551,276.425 527.927,276.402 C523.163,276.3924 518.39932,276.36376 513.635768,276.328112 L499.345304,276.212176 L499.345304,276.212176 L492.2,276.161 C486.246,276.125 480.292,276.137 474.338,276.13 C469.546,276.125 464.673,276.352 459.879,275.972 Z M615.383,528.36 C622.326,527.501 630.348,526.865 637.273,528.225 C637.681,528.305 637.579,529.144 637.209,529.217 C630.318,530.58 622.32,529.917 615.399,529.066 C615.09,529.028 615.064,528.399 615.383,528.36 Z M555.595,528.148 C558.868,527.236 562.374,527.646 565.752,527.737 C569.673,527.843 573.605,528.087 577.511,528.444 C577.748,528.466 577.765,528.96 577.524,528.982 C573.628,529.34 569.711,529.584 565.8,529.689 C565.268368,529.703526 564.732324,529.725931 564.193658,529.749797 L563.113361,529.797577 C560.586989,529.90474 558.029526,529.950579 555.623,529.283 C555.243,529.178 555.199,528.259 555.595,528.148 Z M656.901,527.114 C659.963,526.26 663.007,526.376 666.151,526.557 C667.046,526.609 667.1,528.522 666.2,528.574 C663.052,528.756 659.99,528.872 656.924,528.022 C656.619,527.937 656.584,527.202 656.901,527.114 Z M528.717,526.557 C531.866,526.375 534.927,526.259 537.993,527.11 C538.298,527.194 538.333,527.929 538.016,528.017 C534.954,528.871 531.91,528.755 528.766,528.574 C527.871,528.522 527.817,526.609 528.717,526.557 Z M527.001,513.054 C532.528,512.921 538.154,512.596 543.649,513.323 C544.062,513.377 544.096,514.208 543.673,514.264 C538.183,514.995 532.558,514.666 527.038,514.533 C526.379,514.517 526.346,513.07 527.001,513.054 Z M651.244,513.323 C656.734,512.592 662.359,512.921 667.879,513.054 C668.538,513.07 668.571,514.517 667.916,514.533 C662.388,514.666 656.763,514.991 651.267,514.264 C650.854,514.21 650.82,513.379 651.244,513.323 Z M575.221,502.283 C582.089,501.648 588.983,501.313 595.871,501.913 C596.226,501.944 596.252,502.689 595.89,502.72 C588.999,503.323 582.095,502.982 575.223,502.35 C575.193,502.347 575.191,502.286 575.221,502.283 Z M510.422741,500.063911 L510.548,500.078 C510.991,500.158 511.411,500.184 511.776,500.466 C512.136,500.743 512.18,501.569 511.81,501.859 C511.403,502.179 510.904,502.205 510.406,502.295 C509.463,502.466 509.245,499.844 510.548,500.078 Z M684.511,500.043 C685.454,499.872 685.672,502.494 684.369,502.259 C683.927,502.18 683.506,502.153 683.14,501.872 C682.781,501.595 682.737,500.769 683.106,500.479 C683.514,500.159 684.013,500.133 684.511,500.043 Z M532.352,499.926 C534.467,499.896 536.782,499.594 538.764,500.398 C539.175,500.564 539.224,501.453 538.794,501.629 C536.805,502.445 534.531,502.137 532.406,502.106 C529.955,502.072 527.508,501.906 525.061,501.779 C524.384,501.744 524.344,500.289 525.023,500.253 C527.465,500.126 529.907,499.961 532.352,499.926 Z M738.423,488.285 C738.617,488.123 738.868,488.089 739.068,488.269 C739.12,488.314 739.173,488.359 739.225,488.403 C739.727,488.825 739.816,489.646 739.668,490.24 C739.565,490.65 739.287,491.159 738.803,491.171 C738.256,491.185 737.934,490.56 737.84,490.108 C737.734,489.606 737.794,488.781 738.245,488.427 C738.305,488.38 738.364,488.333 738.423,488.285 Z M524.145,488.309 C532.307,487.462 541.365,486.116 549.498,487.91 C550.035,488.028 549.891,489.095 549.415,489.2 C541.362,490.982 532.243,489.615 524.156,488.78 C523.949,488.758 523.933,488.331 524.145,488.309 Z M645.502,487.889 C653.555,486.106 662.674,487.474 670.761,488.309 C670.968,488.331 670.983,488.758 670.772,488.78 C662.61,489.627 653.552,490.973 645.419,489.179 C644.882,489.061 645.026,487.994 645.502,487.889 Z M758.816,483.707 C759.486,483.678 759.739,484.569 759.766,485.079 C759.793,485.572 759.531,486.523 758.885,486.496 C758.652,486.486 758.439,486.474 758.22,486.387 C757.365,486.05 757.263,484.183 758.157,483.827 C758.378,483.739 758.583,483.716 758.816,483.707 Z M725.799,330 C730.013,327.225 736.813,328.323 741.149,330.114 C741.412,330.223 741.583,330.428 741.693,330.671 C753.886,332.82 764.341,339.187 773.165,347.589 C775.612,349.788 777.881,352.192 779.946,354.783 C780.893,355.894 781.819,357.023 782.721,358.172 C792.476,370.604 801.639,385.166 802.206,401.348 C803.045,411.35 801.369,421.509 797.181,430.867 C795.211,436.346 792.718,441.624 789.793,446.554 C781.803,460.026 770.547,469.086 756.857,476.31 C747.044,481.489 732.953,484.412 721.06,482.188 C717.983,483.339 713.321,482.851 711.123,480.523 C710.681,481.574 709.839,480.711 709.576,479.503 C707.715,479.364 705.752,478.731 703.746,478.524 C699.994,478.137 696.159,477.948 692.471,477.145 C691.921,477.025 692.067,475.928 692.555,475.821 C696.43,474.974 700.494,474.791 704.438,474.381 C706.271,474.191 707.958,473.659 709.565,473.508 C709.708,472.91 709.938,472.35 710.277,471.857 C710.497,469.955 710.717,468.053 710.937,466.151 C709.46,466.244 708.114,466.172 707.731,466.143 C701.069,465.631 693.808,465.509 687.268,464.191 C686.517,464.04 686.709,462.508 687.385,462.371 C692.652,461.303 698.211,461.553 703.552,460.886 C705.984,460.582 709.085,459.824 711.619,460.263 C711.905,457.823 712.198,455.385 712.487,452.946 C711.802,452.964 711.011,452.875 710.023,452.745 C706.197,452.239 702.467,451.987 698.603,451.872 C691.307,451.654 683.76,451.881 676.524,450.887 C675.832,450.792 675.773,449.406 676.485,449.307 C683.698,448.31 691.242,448.54 698.516,448.323 C702.469,448.205 706.211,447.909 710.132,447.418 C711.458,447.253 712.386,447.159 713.159,447.28 C713.428,445.029 713.693,442.777 713.963,440.526 C711.992,440.695 709.943,440.441 707.93,440.293 C704.061,440.007 700.188,439.928 696.313,439.792 C688.625,439.522 680.685,439.857 673.078,438.719 C672.49,438.631 672.438,437.466 673.046,437.375 C680.632,436.231 688.558,436.57 696.227,436.301 C700.095,436.166 703.96,436.095 707.819,435.801 C710.066,435.629 712.366,435.34 714.554,435.645 C714.844,433.244 715.134,430.843 715.425,428.442 C712.325,429.161 708.401,428.25 705.483,428.055 C700.578,427.728 695.59,427.52 690.775,426.484 C690.363,426.396 690.471,425.571 690.839,425.492 C695.845,424.411 701.085,424.225 706.191,423.882 C709.166,423.683 713.014,422.794 715.996,423.723 C716.326,421.02 716.66,418.318 716.992,415.615 C714.06,415.77 711.155,415.117 708.106,415.001 C703.518,414.826 698.841,414.901 694.311,414.094 C693.68,413.982 693.622,412.766 694.276,412.649 C698.805,411.835 703.444,411.983 708.026,411.743 C708.886,411.697667 709.740311,411.614004 710.590431,411.521368 L711.862656,411.379352 C713.76684,411.16724 715.6536,410.984 717.54,411.164 L717.54,411.164 L718.154,406.167 C717.605,406.255 717.065,406.323 716.55,406.323 C715.395,406.322 714.119,405.997 712.963,405.888 C712.6585,405.85925 712.352016,405.834953 712.04434,405.812615 L711.118531,405.748984 C709.262937,405.6235 707.393,405.47875 705.68,404.776 C705.29,404.616 705.244,403.778 705.65,403.609 C707.34725,402.90475 709.202562,402.741062 711.046344,402.619281 L711.966488,402.559574 C712.272359,402.539297 712.577125,402.517875 712.88,402.493 C714,402.4 715.336,402.019 716.444,402.058 C717.168,402.083 717.896,402.204 718.63,402.332 C718.893,400.2 719.16,398.068 719.425,395.937 C716.315,396.782 712.293,395.756 709.251,395.554 C708.176111,395.482667 707.094852,395.435877 706.011206,395.393679 L704.384444,395.331333 C701.129333,395.203556 697.870667,395.027333 694.716,394.264 C694.063,394.106 693.99,392.483 694.668,392.319 C697.810667,391.556333 701.052889,391.375889 704.293037,391.245222 L705.912468,391.181572 C706.991346,391.138617 708.068111,391.091333 709.139,391.02 C712.458,390.799 716.843,389.63 720.055,390.867 C720.343,388.567 720.629,386.268 720.917,383.968 C718.785,384.076 716.403,383.269 714.114,383.073 C713.182941,382.993471 712.245349,382.941069 711.305745,382.893559 L709.895394,382.823184 C707.309055,382.690696 704.724588,382.511118 702.236,381.822 C701.846,381.714 701.801,380.769 702.208,380.656 C704.902353,379.905647 707.720277,379.739765 710.52847,379.600525 L711.931138,379.530543 C712.63145,379.49408 713.329765,379.453471 714.024,379.4 C716.591,379.202 719.263,378.215 721.591,378.594 L721.591,378.594 L722.537,371.049 C720.392,371.361 718.093,371.054 715.826,370.917 C711.331,370.646 706.836,370.375 702.34,370.104 C693.397,369.565 684.254,369.629 675.369,368.509 C674.955,368.457 674.922,367.622 675.346,367.567 C684.203,366.444 693.323,366.511 702.238,365.972 C706.721,365.701 711.203,365.43 715.684,365.159 C718.248,365.004 720.878,364.627 723.276,365.172 C723.536,363.105 723.797,361.038 724.057,358.972 C720.716,359.627 716.917,358.667 713.547,358.442 C708.491,358.105 703.152,358.366 698.196,357.294 C697.578,357.16 697.743,355.924 698.292,355.805 C703.422,354.69 709.055,354.984 714.297,354.622 C715.186043,354.560435 716.093802,354.45096 717.007847,354.337888 L717.923528,354.225257 C720.215669,353.948888 722.521217,353.742348 724.646,354.298 C724.983,351.62 725.321,348.942 725.659,346.263 C717.352,345.1 708.946,344.962 700.62,343.935 C700.118,343.873 700.077,342.855 700.592,342.792 C706.187,342.097 711.821,341.858 717.434,341.362 C720.25,341.114 723.046,340.734 725.85,340.446 C726.05,340.425 726.228,340.409 726.398,340.394 C726.58,338.96 726.761,337.526 726.941,336.092 C724.373,336.171 721.529,335.3 719.018,335.06 C714.38,334.616 709.677,334.547 705.126,333.49 C704.821,333.419 704.788,332.656 705.103,332.582 C709.632,331.528 714.303,331.452 718.919,331.008 C721.097,330.799 723.517,330.127 725.799,330 Z M587.266,477.946 C591.606,477.68 596.143,477.032 600.46,477.762 C600.856,477.829 600.892,478.599 600.482,478.669 C596.165,479.405 591.621,478.751 587.279,478.484 C587.041,478.47 587.026,477.961 587.266,477.946 Z M511.506,475.67 C516.683,474.855 522.544,474.824 527.692,475.859 C528.224,475.966 528.089,477.052 527.61,477.149 C522.509,478.181 516.682,478.12 511.546,477.317 C510.825,477.205 510.762,475.788 511.506,475.67 Z M667.307,475.838 C672.408,474.807 678.235,474.868 683.371,475.67 C684.091,475.783 684.155,477.2 683.411,477.317 C678.233,478.133 672.373,478.163 667.224,477.128 C666.692,477.022 666.827,475.935 667.307,475.838 Z M735.198,336.395 C733.378,336.395 731.832,337.755 731.622,339.59 L731.622,339.59 L716.349,473.385 C716.226,474.452 716.583,475.51 717.325,476.286 C718.067,477.062 719.111,477.458 720.18,477.388 L720.18,477.388 L736.794,476.231 C754.006,475.031 769.96,465.722 779.472,451.329 L779.472,451.329 L788.854,437.133 C801.207,418.441 801.207,394.287 788.854,375.595 L788.854,375.595 L779.472,361.398 C769.96,347.006 754.006,337.697 736.794,336.497 L736.794,336.497 L735.453,336.404 C735.368,336.398 735.283,336.395 735.198,336.395 Z M657.401,463.063 C661.297,461.62 666.696,462.927 670.751,463.248 C671.301,463.291 671.339,464.447 670.782,464.491 C666.732,464.813 661.346,466.117 657.441,464.683 C656.9,464.484 656.835,463.272 657.401,463.063 Z M524.135,463.248 C528.184,462.926 533.57,461.622 537.475,463.055 C538.017,463.254 538.082,464.466 537.515,464.676 C533.62,466.119 528.221,464.812 524.166,464.491 C523.616,464.448 523.578,463.292 524.135,463.248 Z M555.466,462.562 C557.117,462.513 558.825,462.324 560.462,462.562 C560.726,462.601 560.749,463.126 560.476,463.165 C558.84,463.405 557.131,463.215 555.48,463.165 C555.212,463.157 555.198,462.57 555.466,462.562 Z M790.379,451.031 C791.596,451.031 791.646,453.754 790.445,453.754 C789.227,453.754 789.177,451.031 790.379,451.031 Z M618.424,450.648 C623.467,449.055 629.923,450.01 635.187,450.078 C641.318,450.156 647.415,450.484 653.538,450.69 C654.031,450.707 654.057,451.783 653.565,451.799 C647.452,452.005 641.366,452.334 635.244,452.412 C629.958,452.48 623.522,453.438 618.453,451.847 C618.053,451.721 618.005,450.78 618.424,450.648 Z M559.673,450.078 C564.959,450.01 571.395,449.052 576.464,450.643 C576.865,450.769 576.912,451.71 576.493,451.842 C571.45,453.435 564.994,452.48 559.73,452.412 C553.598,452.334 547.502,452.005 541.379,451.799 C540.886,451.783 540.859,450.707 541.352,450.69 C547.465,450.484 553.551,450.156 559.673,450.078 Z M666.138,437.698 C667.476,437.698 667.533,440.69 666.213,440.69 C664.875,440.69 664.819,437.698 666.138,437.698 Z M528.704,437.698 C530.042,437.698 530.098,440.69 528.778,440.69 C527.44,440.69 527.384,437.698 528.704,437.698 Z M637.131,426.773 C639.589,426.618 642.327,426.126 644.608,427.169 C645.087,427.388 645.143,428.374 644.643,428.606 C642.353,429.667 639.659,429.163 637.186,429.008 C634.313,428.829 631.458,428.405 628.602,428.05 C628.462,428.033 628.451,427.749 628.595,427.731 C631.435,427.376 634.273,426.953 637.131,426.773 Z M807.592,426.289 C808.264,426.174 808.541,427.245 808.565,427.694 C808.583,428.022 808.493,428.432 808.315,428.711 C808.202,428.888 807.914,429.189 807.662,429.146 C807.435,429.107 807.206,429.091 806.999,428.987 C806.158,428.565 806.06,426.906 806.936,426.459 C807.143,426.354 807.365,426.328 807.592,426.289 Z M553.956,425.325 C557.276,424.41 560.87,424.692 564.296,424.682 C567.844,424.672 571.166,424.783 574.651,425.421 C575.194,425.521 575.064,426.656 574.566,426.748 C570.892,427.426 567.303,427.486 563.578,427.463 C560.4,427.444 557.071,427.674 553.992,426.83 C553.489,426.691 553.43,425.469 553.956,425.325 Z M666.391,424.767 C670.038,424.631 673.629,424.347 677.208,425.166 C677.912,425.327 677.719,426.711 677.099,426.853 C674.081,427.54525 670.981437,427.459562 667.892281,427.309328 L666.657392,427.247483 C666.040442,427.21653 665.4244,427.1868 664.81,427.164 C661.232,427.031 657.573,427.15 654.044,426.517 C653.612,426.439 653.714,425.53 654.112,425.458 C658.104,424.736 662.338,424.918 666.391,424.767 Z M517.817,425.139 C521.842,424.215 526.011,424.676 530.106,424.828 C533.685,424.961 537.344,424.842 540.873,425.475 C541.305,425.553 541.203,426.462 540.805,426.534 C536.813,427.256 532.579,427.074 528.525,427.225 C524.879,427.361 521.288,427.645 517.709,426.826 C517.005,426.665 517.198,425.281 517.817,425.139 Z M687.364,411.59 C688.957,411.59 689.024,415.153 687.451,415.153 C685.858,415.153 685.792,411.59 687.364,411.59 Z M507.466,411.59 C509.059,411.59 509.125,415.153 507.553,415.153 C505.959,415.153 505.893,411.59 507.466,411.59 Z M661.578,403.347 C667.524,402.718 674.125,401.836 679.978,403.421 C680.108,403.456 680.124,403.773 679.988,403.81 C674.138,405.4 667.541,404.512 661.592,403.885 C661.354,403.86 661.337,403.373 661.578,403.347 Z M514.929,403.422 C520.779,401.832 527.376,402.721 533.325,403.347 C533.562,403.372 533.58,403.859 533.339,403.885 C527.392,404.515 520.792,405.396 514.939,403.812 C514.808,403.776 514.793,403.46 514.929,403.422 Z M571.821,402.786 C586.643,401.973 601.513,401.34 616.331,402.715 L616.331,402.715 L616.38237,402.732062 C616.503358,402.806333 616.495556,403.090778 616.34,403.105 C601.523,404.486 586.649,403.845 571.827,403.034 C571.717,403.028 571.71,402.792 571.821,402.786 Z M686.795,392.281 C688.208,392.281 688.267,395.441 686.873,395.441 C685.46,395.441 685.4,392.281 686.795,392.281 Z M508.044,392.281 C509.457,392.281 509.516,395.441 508.122,395.441 C506.709,395.441 506.65,392.281 508.044,392.281 Z M516.667,380.869 C523.625,380.428 530.996,380.017 537.905,381.105 C538.523,381.202 538.577,382.415 537.94,382.516 C531.036,383.611 523.664,383.191 516.714,382.751 C515.88,382.699 515.827,380.922 516.667,380.869 Z M656.976,381.105 C663.881,380.009 671.253,380.43 678.203,380.869 L678.203,380.869 L678.307344,380.885401 C679.039921,381.073178 679.053478,382.700304 678.25,382.751 C671.292,383.193 663.921,383.604 657.012,382.516 C656.394,382.419 656.34,381.206 656.976,381.105 Z M559.104,381.456 C567.434,380.679667 575.817686,380.839573 584.193218,381.108711 L587.148849,381.20689 L587.148849,381.20689 L590.103199,381.306061 C591.579953,381.354547 593.056,381.400375 594.531,381.439 C594.641,381.441 594.647,381.684 594.537,381.687 C592.078458,381.751375 589.617095,381.835498 587.154449,381.918482 L584.198754,382.016179 C575.823099,382.283863 567.439708,382.441792 559.109,381.669 C559.015,381.661 559.009,381.465 559.104,381.456 Z M636.238,378.92 C640.977,378.913 646.388,378.15 650.98,379.393 C651.518,379.539 651.581,380.848 651.019,381.001 C646.445,382.244 641.027,381.487 636.301,381.48 C630.842,381.471 625.424,381.379 619.986,380.892 C619.375,380.837 619.332,379.564 619.952,379.508 C625.379,379.021 630.789,378.929 636.238,378.92 Z M525.836,366.559 C527.159,366.559 527.214,369.517 525.909,369.517 C524.585,369.517 524.53,366.559 525.836,366.559 Z M669.009,366.559 C670.331,366.559 670.387,369.517 669.081,369.517 C667.759,369.517 667.703,366.559 669.009,366.559 Z M645.932185,357.039815 C646.728778,357.000333 647.528333,357.017 648.215,357.395 C648.578,357.595 648.619,358.277 648.241,358.489 C647.145,359.105 645.739,358.81 644.515,358.78 C643.878,358.765 643.181,358.825 642.556,358.676 C641.95,358.53 641.459,358.212 640.838,358.099 C640.709,358.076 640.74,357.807 640.858,357.785 C641.661,357.637 642.266,357.216 643.078,357.143 C643.627,357.094 644.204,357.116 644.754,357.103 C644.9834,357.0972 645.21828,357.08272 645.455512,357.0678 Z M549.526,357.286 C554.583,355.564 560.862,356.453 566.155,356.436 C572.296,356.417 578.409,356.312 584.527,356.905 C585.043,356.955 585.081,358.024 584.556,358.076 C579.318857,358.586 574.085388,358.580245 568.833551,358.555598 L566.206,358.544 C560.911,358.527 554.603,359.408 549.536,357.696 C549.399,357.65 549.383,357.335 549.526,357.286 Z M668.971,356.78 C673.674,355.613 678.592,355.789 683.369,356.261 C684.139,356.337 684.197,357.931 683.412,358.009 C678.629,358.484 673.698,358.659 668.989,357.493 C668.75,357.434 668.723,356.842 668.971,356.78 Z M511.505,356.261 C516.288,355.786 521.219,355.612 525.928,356.777 C526.167,356.836 526.194,357.429 525.945,357.49 C521.243,358.658 516.325,358.481 511.548,358.009 C510.777,357.933 510.72,356.339 511.505,356.261 Z M659.77,342.911 C664.743,341.758 670.384,342.272 675.351,343.145 C675.543,343.178 675.56,343.546 675.362,343.582 C670.421,344.457 664.752,344.966 659.793,343.819 C659.488,343.749 659.454,342.984 659.77,342.911 Z M519.555,343.145 C524.496,342.27 530.165,341.76 535.124,342.907 C535.429,342.978 535.463,343.742 535.147,343.815 C530.174,344.968 524.533,344.454 519.565,343.582 C519.374,343.548 519.357,343.18 519.555,343.145 Z M560.881,342.297 C565.047,341.327 569.358,341.539 573.617,341.556 C577.871,341.573 582.226,341.312 586.425,342.072 C586.782,342.137 586.697,342.885 586.369,342.945 C581.952,343.752 577.295,343.455 572.816,343.453 C568.81,343.451 564.809,343.619 560.891,342.708 C560.754,342.676 560.739,342.331 560.881,342.297 Z M594.059,340.778 C594.789,340.778 594.82,342.409 594.099,342.409 C593.37,342.409 593.34,340.778 594.059,340.778 Z M498.866,332.146 C500.173,332.146 500.228,335.07 498.937,335.07 C497.63,335.07 497.575,332.146 498.866,332.146 Z M695.979,332.146 C697.287,332.146 697.342,335.07 696.052,335.07 C694.743,335.07 694.689,332.146 695.979,332.146 Z M513.693016,323.053578 C515.153125,323.006 516.628,322.9895 517.978,323.531 C518.573,323.77 518.644,325.062 518.021,325.314 C516.66875,325.86225 515.21075,325.846875 513.757109,325.799437 L513.031162,325.775508 C512.789641,325.768281 512.54875,325.762625 512.309,325.761 C510.133,325.746 507.975,325.739 505.813,325.452 C504.913,325.332 504.838,323.525 505.763,323.401 C507.917,323.112 510.074,323.107 512.243,323.092 C512.482125,323.090375 512.722953,323.084734 512.964838,323.077518 Z M541.585,322.438 C543.191,322.42 544.53,322.601 546.055,323.107 C546.57,323.277 546.631,324.466 546.093,324.646 C544.577,325.152 543.253,325.339 541.656,325.322 C540.123,325.305 538.55,325.438 537.185,324.653 C536.674,324.359 536.617,323.424 537.147,323.114 C538.498,322.322 540.062,322.455 541.585,322.438 Z M615.875,314.093 C623.271,313.676 631.315,312.486 638.629,314.101 C638.832,314.146 638.777,314.55 638.596,314.59 C631.309,316.206 623.266,315.006 615.888,314.59 C615.667,314.578 615.653,314.106 615.875,314.093 Z M557.737,313.149 C562.785,312.736 568.775,311.442 573.716,312.952 C574.036,313.05 574.074,313.807 573.739,313.91 C568.804,315.428 562.805,314.13 557.751,313.717 C557.5,313.697 557.483,313.17 557.737,313.149 Z M522.993,312.563 C530.018,311.427 538.928,311.318 545.947,312.546 C546.299,312.608 546.331,313.289 545.966,313.353 C538.96,314.589 530.044,314.464 523.013,313.336 C522.674,313.282 522.644,312.62 522.993,312.563 Z M648.951,312.546 C655.957,311.31 664.873,311.435 671.904,312.563 C672.243,312.617 672.273,313.28 671.924,313.336 C664.898,314.472 655.989,314.581 648.971,313.353 C648.618,313.292 648.586,312.611 648.951,312.546 Z M512.665,301.694 C516.817,301.436 521.253,300.812 525.359,301.656 C525.687,301.724 525.603,302.389 525.308,302.45 C521.234,303.293 516.805,302.655 512.682,302.399 C512.369,302.38 512.35,301.713 512.665,301.694 Z M669.609,301.644 C673.683,300.801 678.111,301.438 682.234,301.694 C682.548,301.713 682.567,302.38 682.252,302.399 C678.1,302.658 673.664,303.282 669.557,302.438 C669.229,302.37 669.314,301.704 669.609,301.644 Z M568.853,283.983 C571.811,282.606 575.217,283.143 578.419,283.22 C582.168,283.311 585.832,283.459 589.559,283.905 C589.87,283.942 589.894,284.572 589.577,284.611 C585.866,285.058 582.202,285.205 578.47,285.295 C575.272,285.372 571.828,285.895 568.867,284.535 C568.683,284.45 568.661,284.073 568.853,283.983 Z M676.475,282.474 C677.557,282.474 677.602,284.894 676.535,284.894 C675.452,284.894 675.407,282.474 676.475,282.474 Z M518.382,282.474 C519.465,282.474 519.51,284.894 518.442,284.894 C517.36,284.894 517.314,282.474 518.382,282.474 Z M616.526,283.163 C623.316111,282.128852 630.225229,282.596077 637.069764,283.145408 L638.853709,283.289641 C639.447789,283.337717 640.041259,283.385481 640.634,283.432 C640.856,283.449 640.872,283.918 640.646,283.936 C640.349667,283.959333 640.053166,283.982959 639.756512,284.006762 L637.974859,284.150789 C630.841778,284.728062 623.636444,285.275222 616.552,284.205 C616.096,284.136 616.055,283.234 616.526,283.163 Z M645.788,281.864 C647.521,281.936 649.24,281.986 650.961,282.217 C651.241,282.254 651.264,282.816 650.976,282.856 C649.262,283.087 647.55,283.137 645.821,283.209 C645.217,283.233 645.199,281.84 645.788,281.864 Z"/>
  </g>
</svg>
